PathFileType	3	(X/Y/Z)	F:\ViconData\AntennenMessung\Messung1\Session1\ID13.trc
DataRate	CameraRate	NumFrames	NumMarkers	Units	OrigDataRate	OrigDataStartFrame	OrigNumFrames
120.0	120.0	4	70	mm	120.0	457	912	
Frame#	Time	Ashort			Along			Atop			A4			Bshort			Blong			Btop			B4			Cshort			Clong			Ctop			C4			Dshort			Dlong			Dtop			D4			Eshort			Elong			Etop			E4			Fshort			Flong			Ftop			F4			Gshort			Glong			Gtop			G4			Hshort			Hlong			Htop			H4			I1			I2			I3			I4			I5			WandAshort			WandAlong			WandAtop			WandA4			WandA15			WandBshort			WandB4			WandB5			WandBtop			WandBlong			WandCshort			WandClong			WandCtop			WandC4			WandC5			Acenter			Aantenna			Bcenter			Bantenna			Ccenter			Cantenna			Dcenter			Dantenna			Ecenter			Eantenna			Fcenter			Fantenna			Gcenter			Gantenna			Hcenter			Hantenna			Icenter			Iantenna			
		X1	Y1	Z1	X2	Y2	Z2	X3	Y3	Z3	X4	Y4	Z4	X5	Y5	Z5	X6	Y6	Z6	X7	Y7	Z7	X8	Y8	Z8	X9	Y9	Z9	X10	Y10	Z10	X11	Y11	Z11	X12	Y12	Z12	X13	Y13	Z13	X14	Y14	Z14	X15	Y15	Z15	X16	Y16	Z16	X17	Y17	Z17	X18	Y18	Z18	X19	Y19	Z19	X20	Y20	Z20	X21	Y21	Z21	X22	Y22	Z22	X23	Y23	Z23	X24	Y24	Z24	X25	Y25	Z25	X26	Y26	Z26	X27	Y27	Z27	X28	Y28	Z28	X29	Y29	Z29	X30	Y30	Z30	X31	Y31	Z31	X32	Y32	Z32	X33	Y33	Z33	X34	Y34	Z34	X35	Y35	Z35	X36	Y36	Z36	X37	Y37	Z37	X38	Y38	Z38	X39	Y39	Z39	X40	Y40	Z40	X41	Y41	Z41	X42	Y42	Z42	X43	Y43	Z43	X44	Y44	Z44	X45	Y45	Z45	X46	Y46	Z46	X47	Y47	Z47	X48	Y48	Z48	X49	Y49	Z49	X50	Y50	Z50	X51	Y51	Z51	X52	Y52	Z52	X53	Y53	Z53	X54	Y54	Z54	X55	Y55	Z55	X56	Y56	Z56	X57	Y57	Z57	X58	Y58	Z58	X59	Y59	Z59	X60	Y60	Z60	X61	Y61	Z61	X62	Y62	Z62	X63	Y63	Z63	X64	Y64	Z64	X65	Y65	Z65	X66	Y66	Z66	X67	Y67	Z67	X68	Y68	Z68	X69	Y69	Z69	X70	Y70	Z70	
457	3.8	-1038.2596	214.63664	-1644.1451	-1109.4009	203.98393	-1599.3682	-1063.6392	172.91534	-1625.9087	-1054.1498	262.27121	-1634.88	-1352.713	235.43571	1003.7136	-1281.3765	227.39406	1052.1265	-1322.7469	194.15358	1020.7283	-1284.6755	287.82962	1052.7567	813.87201	187.64095	1209.4304	892.55273	178.56282	1179.0127	844.4599	145.57816	1198.2562	861.17352	292.70325	1168.6122	1115.8124	209.96872	-1401.8002	1056.2465	194.04718	-1460.1725	1095.1812	162.34361	-1423.7938	1069.7302	238.82303	-1425.8746	-1204.5295	1686.0149	-1563.2474	-1129.1165	1688.2898	-1606.0483	-1173.1742	1724.4589	-1581.8961	-1134.0365	1581.0319	-1603.853	-1239.5416	1699.0044	1119.3958	-1308.172	1699.5122	1068.0123	-1270.4481	1736.2938	1096.8536	-1245.71	1593.0137	1110.729	988.82721	1664.2419	1162.2052	957.30316	1700.5179	1183.8262	922.07654	1662.2172	1214.8381	939.82751	1659.423	1159.8553	999.11993	1668.4509	-1579.4392	1058.9097	1670.1228	-1518.7109	1025.052	1708.0184	-1551.1741	1059.2969	1672.1718	-1585.5511	-187.68614	1177.3116	-236.60818	-194.18404	1179.125	-152.38882	-191.53838	1215.0809	-199.67845	-222.37723	1175.6219	-202.07635	-142.52025	1180.4731	-196.06252																																														-1068.6458	210.08659	-1625.0198	-1073.85	248.72675	-1624.0957	-1321.3768	231.90323	1024.9799	-1319.9711	270.63306	1029.3418	848.06696	183.69554	1196.2106	851.73602	222.46678	1194.13	1088.7847	202.74442	-1428.2863	1082.7225	241.03438	-1432.5439	-1171.9532	1686.9974	-1581.736	-1170.6829	1648.0184	-1581.5696	-1270.3372	1699.2322	1096.3391	-1270.2205	1660.2361	1095.7977	952.85803	1705.6329	1186.8749	972.82617	1733.7971	1168.7349	1026.5488	1669.2179	-1551.5796	1028.0524	1630.249	-1551.9869	-190.60239	1178.1254	-198.81058	-189.6152	1139.1487	-197.89525
458	3.8083333	-1038.2512	214.6537	-1644.1608	-1109.3749	204.02693	-1599.3419	-1063.6188	172.92	-1625.9431	-1054.1429	262.26443	-1634.897	-1352.6511	235.6788	1003.7	-1281.4489	227.43706	1052.1682	-1322.7299	194.22083	1020.7013	-1284.4884	287.90237	1052.6545	813.89508	187.67108	1209.4646	892.57635	178.4864	1179.1021	844.4859	145.44821	1198.3489	861.19708	292.53995	1168.4978	1115.8253	209.99055	-1401.7981	1056.23	194.02855	-1460.1556	1095.1733	162.42432	-1423.8397	1069.7605	238.78848	-1425.8873	-1204.5286	1686.0121	-1563.2426	-1129.1262	1688.3073	-1606.0382	-1173.1697	1724.4692	-1581.8959	-1134.0109	1581.0542	-1603.894	-1239.5259	1698.9928	1119.3912	-1309.1824	1698.5216	1071.7853	-1270.4612	1736.3099	1096.8679	-1245.7189	1593.01	1110.7214	988.77917	1664.2196	1162.2335	957.30701	1700.4913	1183.8282	922.65289	1662.1119	1214.9099	939.83917	1659.4386	1159.8779	999.13086	1668.4506	-1579.42	1058.7723	1669.95	-1518.7329	1025.0415	1708.0405	-1551.1606	1059.3129	1672.1415	-1585.4423	-187.6855	1177.2968	-236.59991	-194.19221	1179.1289	-152.40189	-191.51044	1215.1171	-199.67026	-222.39311	1175.6388	-202.06554	-142.50587	1180.4768	-196.05327																																														-1068.6038	210.11864	-1625.0338	-1073.7825	248.76175	-1624.0894	-1321.3033	232.05028	1025.0386	-1319.8435	270.76929	1029.4779	848.13818	183.67378	1196.2504	851.84216	222.43913	1194.1222	1088.752	202.73926	-1428.309	1082.6538	241.02498	-1432.5535	-1171.9399	1687.004	-1581.7385	-1170.6606	1648.0253	-1581.575	-1270.9314	1698.7803	1097.9275	-1271.4198	1659.7988	1099.028	953.10962	1705.3287	1186.7081	972.93225	1733.4562	1168.3531	1026.469	1669.1378	-1551.6025	1027.8992	1630.1665	-1552.0452	-190.60698	1178.1193	-198.79541	-189.65517	1139.1418	-197.87375
459	3.8166667	-1038.2515	214.65359	-1644.126	-1109.3907	203.96008	-1599.3372	-1063.6627	172.89093	-1625.9016	-1054.1594	262.27841	-1634.9011	-1352.6278	235.81033	1003.5119	-1281.4275	227.45042	1052.1736	-1322.7222	194.18617	1020.7241	-1284.549	287.8938	1052.6721	813.96063	187.62408	1209.5187	892.4751	178.39433	1179.073	844.32843	145.57159	1198.2374	861.1369	292.44055	1168.5759	1115.8149	209.96921	-1401.811	1056.2693	194.0354	-1460.1816	1095.1566	162.37869	-1423.8639	1069.7445	238.79367	-1425.8802	-1204.5363	1686.0128	-1563.243	-1129.1322	1688.3059	-1606.0487	-1173.1665	1724.4779	-1581.9132	-1134.0258	1581.0508	-1603.8804	-1239.5607	1699.0341	1119.4069	-1309.1829	1698.55	1071.798	-1270.5007	1736.355	1096.8903	-1245.7123	1592.9792	1110.7091	988.81671	1664.2463	1162.2209	957.22076	1700.5354	1183.8024	922.00366	1662.2994	1214.8529	939.79559	1659.4183	1159.871	999.10681	1668.4424	-1579.4209	1058.9098	1670.1213	-1518.698	1025.0422	1708.0472	-1551.1564	1059.3213	1672.141	-1585.434	-187.68622	1177.3048	-236.60353	-194.11522	1179.0101	-152.47366	-191.51941	1215.0548	-199.66254	-222.40273	1175.6382	-202.08133	-142.5228	1180.4795	-196.06479																																														-1068.6697	210.08118	-1624.9747	-1073.8716	248.72069	-1624.0118	-1321.1896	232.11905	1024.9983	-1319.6249	270.84262	1029.3615	848.04944	183.61676	1196.2998	851.84094	222.38179	1194.3257	1088.7496	202.72682	-1428.342	1082.6698	241.01491	-1432.5916	-1171.9344	1687.0042	-1581.7504	-1170.653	1648.0256	-1581.5809	-1270.9563	1698.8158	1097.938	-1271.4293	1659.8339	1099.026	952.72968	1705.6934	1186.87	972.67346	1733.8597	1168.7067	1026.5439	1669.2125	-1551.5616	1028.0508	1630.2438	-1551.9683	-190.57198	1178.0703	-198.84044	-189.57352	1139.0927	-197.97406
460	3.825	-1038.3118	214.80247	-1644.1115	-1109.3688	204.09653	-1599.3757	-1063.6542	172.9021	-1625.9388	-1054.1538	262.27325	-1634.908	-1352.6749	235.68503	1003.7338	-1281.3201	227.45152	1052.0485	-1322.766	194.12422	1020.7151	-1284.6543	287.86847	1052.7418	813.88129	187.6353	1209.3948	892.47955	178.36835	1179.063	844.43597	145.50064	1198.2241	861.08911	292.66547	1168.5933	1115.839	209.99004	-1401.8099	1056.3055	194.07068	-1460.2174	1095.1683	162.38849	-1423.8895	1069.7408	238.8186	-1425.8915	-1204.4972	1686.0066	-1563.2546	-1129.1428	1688.3081	-1606.0664	-1173.1727	1724.4751	-1581.9141	-1134.0154	1581.0468	-1603.8928	-1239.5443	1699.0054	1119.3912	-1309.1891	1698.5084	1071.7802	-1270.4457	1736.304	1096.8673	-1245.7256	1593.0486	1110.7411	988.78351	1664.2083	1162.2235	957.23779	1700.5117	1183.8298	921.99792	1662.3842	1214.9319	939.82074	1659.4071	1159.8813	999.10602	1668.4243	-1579.4207	1058.9119	1670.124	-1518.7037	1025.0387	1708.0322	-1551.156	1059.301	1672.172	-1585.5375	-187.68678	1177.2985	-236.60524	-194.2345	1178.9381	-152.60593	-191.52975	1215.0497	-199.66968	-222.39684	1175.6331	-202.07782	-142.52655	1180.4468	-196.03783																																														-1068.6813	210.22676	-1624.9915	-1073.8854	248.86554	-1624.0106	-1321.2825	232.06271	1024.9896	-1319.7684	270.78827	1029.3529	848.1369	183.59645	1196.175	851.90253	222.35822	1194.0905	1088.7689	202.75148	-1428.3678	1082.6982	241.04112	-1432.6162	-1171.9368	1687.001	-1581.7534	-1170.6515	1648.0226	-1581.5862	-1270.9149	1698.7814	1097.9453	-1271.4023	1659.8005	1099.0652	952.7041	1705.7289	1186.9348	972.64807	1733.8817	1168.7506	1026.5504	1669.2043	-1551.5581	1028.0676	1630.236	-1551.9617	-190.6277	1178.0349	-198.87677	-189.67778	1139.0554	-198.04179
